<mxfile host="app.diagrams.net" modified="2023-05-29T11:19:26.027Z" agent="Mozilla/5.0 (Windows NT 10.0; Win64; x64; rv:109.0) Gecko/20100101 Firefox/113.0" version="21.3.5" etag="Er7iDXY8Z4kHgoRwBLfg" type="github">
  <diagram name="Страница 1" id="MBVmRBheDgLtFEfpQQyV">
    <mxGraphModel>
      <root>
        <mxCell id="0" />
        <mxCell id="1" parent="0" />
      </root>
    </mxGraphModel>
  </diagram>
</mxfile>
